PathFileType	4	(X/Y/Z)	PS_ngait_og_ss9.trc	
DataRate	CameraRate	NumFrames	NumMarkers	Units	OrigDataRate	OrigDataStartFrame	OrigNumFrames	
120.00	120.00	9	39	mm	120.00	570	130	
Frame#	Time	Sternum			Neck			RShoulder			LShoulder			Xiphoid			Thoracic			RAsis			LAsis			RPsis			LPsis			LThighSuperior			LThighInferior			LThighLateral			LShankSuperior			LShankInferior			LShankLateral			RThighSuperior			RThighInferior			RThighLateral			RShankSuperior			RShankInferior			RShankLateral			RHeel			RToe			RMidfootMedial			RMidfootLateral			RHindfoot			RMidfootSuperior			RToeMedial			RToeLateral			LHeel			LToe			LMidfootMedial			LMidfootLateral			LHindfoot			LMidfootSuperior			LToeMedial			LToeLateral			Sacral			
		X1	Y1	Z1	X2	Y2	Z2	X3	Y3	Z3	X4	Y4	Z4	X5	Y5	Z5	X6	Y6	Z6	X7	Y7	Z7	X8	Y8	Z8	X9	Y9	Z9	X10	Y10	Z10	X11	Y11	Z11	X12	Y12	Z12	X13	Y13	Z13	X14	Y14	Z14	X15	Y15	Z15	X16	Y16	Z16	X17	Y17	Z17	X18	Y18	Z18	X19	Y19	Z19	X20	Y20	Z20	X21	Y21	Z21	X22	Y22	Z22	X23	Y23	Z23	X24	Y24	Z24	X25	Y25	Z25	X26	Y26	Z26	X27	Y27	Z27	X28	Y28	Z28	X29	Y29	Z29	X30	Y30	Z30	X31	Y31	Z31	X32	Y32	Z32	X33	Y33	Z33	X34	Y34	Z34	X35	Y35	Z35	X36	Y36	Z36	X37	Y37	Z37	X38	Y38	Z38	X39	Y39	Z39	

66	0.542	621.73779	1431.30750	157.67474	457.72736	1529.66895	162.96913	504.05502	1514.57617	322.99063	487.28412	1522.89636	25.39133	654.27863	1271.44678	158.33458	375.82019	1312.70081	172.02126	571.43738	997.28412	289.35709	563.00018	1009.03064	15.69924	380.55167	1032.79272	218.52922	369.80453	1027.80896	114.57996	464.71268	829.88806	-33.28232	442.06058	597.33020	8.07928	539.85248	688.69452	44.29528	371.71524	368.43152	10.52078	285.22128	187.28236	50.39251	363.42871	262.45856	81.56803	546.28442	815.63483	335.65775	634.97437	592.84534	311.72879	660.86530	756.75116	270.70560	662.70416	436.21295	323.45056	737.50970	193.35260	295.15784	754.48645	330.71707	251.30270	695.90491	56.19818	240.89200	999.73199	132.30569	258.09030	915.62097	83.89535	206.15071	909.00586	78.24036	320.12744	861.11505	65.65441	310.99121	859.41583	129.33749	255.68694	955.27216	100.78274	209.96931	954.54108	101.52692	313.44601	165.92268	72.12539	109.16109	475.95261	53.26499	59.33268	378.93103	36.09429	124.93597	367.02448	31.41291	6.76544	312.52866	32.73755	22.12292	354.17285	94.85265	77.58819	422.66840	34.67451	114.65978	413.22629	38.92929	11.16010	375.17810	1030.30078	166.55458 
67	0.550	630.77136	1430.14709	159.61566	466.61017	1528.23071	165.48390	513.10400	1512.34827	325.37045	496.30774	1522.04150	27.62963	663.63678	1270.43469	159.61423	385.23679	1311.08606	173.16551	582.16235	996.15344	289.41296	572.37390	1007.34760	16.12089	390.78201	1031.06799	219.62607	379.41812	1026.04395	115.48972	474.03699	828.79846	-32.95851	450.04440	596.22327	8.20959	548.64624	687.11810	44.19247	376.94611	367.88419	10.69565	287.93842	187.97882	51.12259	367.65527	262.34906	82.65400	558.21680	815.60669	336.65076	647.03430	591.81604	312.66562	672.67755	756.79431	271.29474	671.62445	434.85880	323.92874	741.93689	190.78476	294.93683	760.90680	327.85715	251.66451	698.30164	56.83156	241.29332	1004.14313	122.34550	256.56583	918.42212	76.19350	205.19469	911.78558	70.35351	318.60764	863.73901	59.82596	310.09012	863.78461	123.10632	255.11235	958.53693	92.02310	208.74712	958.52606	92.76853	312.22638	166.99928	74.27106	109.85813	476.32303	52.57680	59.15916	379.21161	36.03709	124.91415	367.02774	31.48389	6.78194	313.33658	32.50997	22.72092	355.17221	95.07803	77.70796	422.98074	34.32811	114.54408	413.43771	38.70305	11.05867	385.10007	1028.55591	167.55789 
68	0.558	639.96582	1429.13086	161.63177	475.47165	1526.88928	167.96153	522.20593	1510.12317	327.77899	505.29929	1521.32739	29.72929	673.14209	1269.47168	160.82253	394.64563	1309.53662	174.65584	593.14459	995.57507	289.69867	581.72955	1005.92828	16.51841	401.18539	1029.55151	221.04239	389.12717	1024.37891	116.62136	483.66696	827.86908	-32.53160	458.63623	595.34967	8.35772	558.04816	685.77509	44.10750	382.92255	367.41165	10.52860	290.51700	189.51283	51.88908	371.64114	262.24826	82.75794	570.65723	815.44537	337.27322	658.05707	590.20844	313.43219	684.99780	756.70416	271.51328	680.01630	432.90234	324.19708	747.22614	188.38953	294.82532	768.11230	324.83426	251.53596	700.50525	58.08003	241.19489	1007.84851	113.88382	255.64813	920.66797	70.40415	204.40808	910.65759	59.40047	314.67191	866.26526	55.09793	309.36615	867.51447	116.91451	256.26691	961.07928	85.49827	207.76384	962.55249	83.65178	311.21884	168.08209	77.32430	110.47123	476.71716	51.87551	59.00133	379.59293	36.09045	124.98444	367.04535	31.72287	6.64176	313.46210	33.15555	23.28318	356.40204	95.40510	77.84989	423.35062	34.02827	114.49358	413.60815	38.56844	11.03387	395.15628	1026.96521	168.83188 
69	0.567	649.10089	1428.27014	163.42984	484.41522	1525.71765	170.39299	531.45593	1508.06836	330.20551	514.11249	1520.64624	32.01779	682.63824	1268.74182	162.08748	404.01959	1308.05457	176.26079	603.86450	994.95404	290.09238	591.12128	1004.31036	16.98466	411.46768	1028.09949	222.24815	399.00650	1022.90924	118.00269	493.58655	827.09491	-31.97353	467.13507	594.54486	8.45435	567.35718	684.50092	43.97102	389.23077	367.34509	11.14003	293.55148	191.26712	52.45426	376.57944	262.61359	83.60792	583.40302	815.08057	337.74625	667.35150	588.49677	314.14902	697.62335	756.41071	271.58240	687.77216	431.14148	324.29669	752.87354	186.23386	294.83939	774.78168	322.48578	251.93254	703.24597	59.23114	241.03841	1011.35132	105.53023	255.45799	923.02966	64.13458	204.00018	911.17194	50.77011	313.11093	868.24731	50.48506	308.98694	871.09320	110.90973	256.84665	963.87231	78.57917	207.44351	965.82867	75.32098	310.85565	169.46982	80.90565	111.25350	477.35165	51.02301	58.79576	380.13785	36.08188	124.91586	366.80426	31.90671	6.68753	313.39380	33.87944	23.98434	357.91873	95.82250	78.10822	423.89203	33.61594	114.33821	414.05014	38.39421	10.89864	405.23709	1025.50439	170.12543 
70	0.575	658.27673	1427.58057	165.25420	493.34286	1524.63562	172.97964	540.78210	1506.13440	332.68451	522.75372	1520.16858	34.31769	692.13129	1268.17480	163.08731	413.55060	1306.71704	178.00046	614.65405	994.43304	290.60141	600.59253	1002.88129	17.58610	421.86069	1026.91528	223.55936	408.99860	1021.64069	119.56536	503.77249	826.46356	-31.25600	476.09592	593.70789	8.83722	577.12799	683.19452	44.12078	397.47150	369.00723	11.10634	297.77286	192.91367	53.82908	381.59894	262.90869	83.62954	596.26129	814.29199	338.23737	675.18256	586.58710	314.53699	710.36145	755.69330	271.66968	695.33557	429.49319	324.51733	758.61536	184.16397	295.12299	781.27881	320.24670	252.23651	705.86572	60.29692	241.01047	1014.84387	96.48154	256.05884	925.39600	57.64829	204.59402	913.20953	45.00887	313.77945	870.18774	45.90944	309.27316	874.81006	106.09033	257.24823	966.63416	70.85604	208.04675	968.36169	67.79475	311.46899	171.42032	85.32815	112.01433	477.92960	50.21446	58.61205	380.75098	36.26849	124.97421	366.75354	32.07368	6.82905	313.79791	35.00732	24.34092	359.43143	96.67776	78.27843	424.44104	33.36993	114.29993	414.39175	38.15767	10.88073	415.42966	1024.27795	171.56236 
71	0.583	667.45880	1427.14526	167.03667	502.24927	1523.82324	175.55388	550.27643	1504.42871	335.15665	531.13196	1519.77539	36.80536	701.66748	1267.91406	163.85593	422.98755	1305.69714	179.78590	625.71814	994.43750	291.47919	610.02594	1001.98230	18.28140	432.44803	1026.02515	225.38849	418.93982	1020.40607	121.26986	514.19446	825.95544	-30.35111	485.87863	593.49487	9.15186	587.72089	682.51221	44.20231	404.34662	369.09952	11.66654	301.68073	195.61877	54.19665	387.54880	263.46225	83.60412	608.09186	812.60968	338.63782	682.80475	584.84674	314.91992	722.07184	754.08209	271.66626	702.87488	428.27567	325.27377	763.84741	182.04759	295.49710	788.01752	317.91266	252.66966	707.90967	61.53656	241.04822	1018.13654	87.18674	257.17108	927.36713	51.87501	205.12392	913.07251	34.07035	311.29587	871.47479	41.78230	309.92102	878.30981	99.10806	260.26630	969.00024	64.29131	208.72079	971.73480	57.12981	311.91843	173.59064	90.60904	112.64314	478.21722	49.60270	58.38151	381.48172	36.47572	124.96822	366.79730	32.41317	6.99060	314.82791	35.89509	25.05486	361.68100	97.30602	78.76032	424.82974	33.18312	114.29283	414.37872	38.08569	10.91884	425.69394	1023.21564	173.32918 
72	0.592	676.62579	1426.87708	168.53470	511.21747	1523.12537	178.25546	559.91736	1503.00134	337.58298	539.42273	1519.54944	39.39089	711.29028	1267.84851	164.76237	432.51129	1304.79358	181.77547	636.60815	994.26697	292.31094	619.99487	1001.08832	19.39627	443.09628	1025.34692	226.68900	429.19598	1019.41901	122.92693	524.81561	825.54333	-29.23205	495.88763	593.13947	9.50836	598.53986	681.68738	44.32571	411.89081	369.07297	12.51870	306.05627	199.18274	54.44757	393.95639	265.03284	84.00530	618.62561	809.86621	339.18893	690.48779	583.38281	315.32117	732.48541	751.40997	271.81351	710.39246	426.81744	326.19092	768.71130	180.11681	295.82599	794.34332	315.80667	253.30266	709.59351	62.68831	241.24359	1020.85217	79.09987	257.60269	929.14209	46.61926	205.62323	922.48352	41.55053	320.48828	872.75995	37.30353	309.66934	882.21234	100.98659	255.82164	971.36078	56.27647	209.48097	971.11920	56.39033	312.96259	176.26620	97.02953	113.29539	478.69952	48.93816	58.19865	382.22787	36.79172	125.02491	366.89438	32.58938	6.98802	316.38834	36.58779	25.48281	364.44302	97.52094	78.81778	425.35883	33.08737	114.31837	414.60779	37.87534	10.96979	436.14612	1022.38300	174.80797 
73	0.600	685.83582	1426.83923	170.14130	520.18457	1522.72034	180.97827	569.65979	1501.86682	339.97256	547.61316	1519.52063	41.76988	720.99078	1267.95471	165.57056	441.97198	1304.26025	183.97842	647.00500	994.23676	293.10797	629.20435	1000.63416	20.04408	453.18948	1024.73523	228.10745	439.00601	1018.82489	124.69987	535.59222	825.19269	-27.87379	506.88593	593.41992	10.20864	610.34833	681.49847	44.79288	420.36575	369.29398	13.36766	311.04803	203.34674	54.66831	399.96530	266.24109	85.02287	627.82062	806.49353	339.96164	698.50745	582.45166	315.98276	741.56030	748.10846	272.18237	718.05078	425.85928	327.02356	773.08704	178.48250	295.89160	800.51990	313.89063	253.68253	710.71094	63.44822	241.45779	1023.09741	72.26536	257.62460	930.45905	42.68399	205.84500	924.83472	38.92307	321.42130	873.82819	34.35542	309.79752	885.29187	98.88988	255.63211	972.87036	50.87208	209.60822	972.59186	51.60386	313.08722	179.67104	104.36796	113.86803	479.05734	48.23425	57.96269	383.16348	37.13465	124.99827	367.02774	33.20422	7.20510	318.37747	38.21179	26.45317	367.24396	99.22565	77.75753	425.82440	32.91951	114.33302	414.61197	37.93165	11.04411	446.09775	1021.78003	176.40366 
74	0.608	694.98755	1427.02368	171.60162	529.16003	1522.59705	183.81346	579.57275	1501.06189	342.36581	555.80389	1519.75610	44.12724	730.51923	1268.32690	166.40298	451.41537	1304.08484	186.29045	657.00409	994.71851	293.93832	638.30298	1000.29974	20.80200	462.96671	1024.59973	229.30794	448.63892	1018.66296	126.39359	546.47437	824.86139	-26.25376	519.78882	592.62476	10.19780	621.96710	681.28729	44.84446	430.48920	369.98630	13.54802	317.46082	207.54494	54.60846	407.62265	267.92062	85.37184	636.05762	804.04120	341.07132	706.81842	582.22882	316.61432	749.67706	745.72742	272.88812	725.78033	425.58936	328.00058	777.15472	177.41722	295.85468	805.88977	312.37976	253.76428	711.13739	63.98426	241.73325	1024.74268	66.80012	257.37723	930.97992	40.10262	205.49492	924.95178	34.79219	320.37390	874.44220	32.81329	310.24664	887.62689	96.82219	256.30515	973.81714	47.26199	209.30586	973.96161	46.67668	312.78607	183.63887	112.86524	114.35377	479.53833	47.50735	57.84578	384.44736	37.70589	125.04461	367.49863	34.07154	7.50229	320.55042	40.54971	26.63043	370.96735	100.40408	77.64201	426.43423	32.86875	114.51649	414.68753	38.10566	11.29813	455.80283	1021.63135	177.85077 
